# xmcd CD database file
#
# Track frame offsets:
#	150
#	21887
#	38235
#	59137
#	83765
#	103365
#	125852
#	142067
#	159647
#	179225
#	192157
#	207947
#
# Disc length: 3032 seconds
#
# Revision: 6
# Processed by: cddbd v1.5.2PL0 Copyright (c) Steve Scherf et al.
# Submitted via: CDex 1.70beta3
#
DISCID=bf0bd60c
DTITLE=氷室京介 - IN THE MOOD
DYEAR=2006
DGENRE=J-Rock
TTITLE0=Easy Love "IN THE MOOD EDITION"
TTITLE1=Ignition
TTITLE2=Bitch As Witch "ALBUM MIX"
TTITLE3=Wild Romance "ALBUM MIX"
TTITLE4=Harvest
TTITLE5=Say something
TTITLE6=In The Nude ～Even not in the mood～
TTITLE7=Sweet Revolution
TTITLE8=Shadow Of Your Smile
TTITLE9=Pain
TTITLE10=Miss Murder
TTITLE11=Stand Alone
EXTD=YEAR: 2006
EXTT0=
EXTT1=
EXTT2=
EXTT3=
EXTT4=
EXTT5=
EXTT6=
EXTT7=
EXTT8=
EXTT9=
EXTT10=
EXTT11=
PLAYORDER=
